<svg version="1.0" xmlns="http://www.w3.org/2000/svg" width="93.333" height="93.333" viewBox="0 0 70 70"><path d="M26 13v6h-3.2c-8 0-14.1 6-14.2 14-.1 4.8-.2 5-2.8 5-1.6 0-2.8.4-2.8 1 0 .5 1.5 1 3.4 1 2.5 0 3.6.5 4.1 1.9.3 1 2.7 3.8 5.4 6.2C20.6 52.4 33.4 61 35.1 61c.4 0 4.6-2.4 9.1-5.3C52 50.6 60 43.2 60 41c0-.6 1.6-1 3.5-1s3.5-.5 3.5-1c0-.6-1.2-1-2.8-1-2.6 0-2.7-.2-2.4-4.3.7-8.2-7.1-15.3-15.5-14.3L42 20v-3.6c0-2.1-.4-3.3-1-2.9-.5.3-1 1.9-1 3.4s-1 4.1-2.3 5.8l-2.3 3.1-2.6-2.3c-2-1.7-2.8-3.8-3.8-9.4-.6-3.9-1.6-7.1-2.1-7.1s-.9 2.7-.9 6zm1.7 6.2c-.3.8-.6.5-.6-.6-.1-1.1.2-1.7.5-1.3.3.3.4 1.2.1 1.9zm-2.9 10l-.3 8.3-7.2.3-7.3.3V34c0-7.7 4.7-12.9 11.8-13h3.3l-.3 8.2zm32.4-4.3C59.5 27.4 60 29 60 33v5h-5.9c-5.2 0-6.2.3-7.9 2.5-1.1 1.4-2.3 2.5-2.6 2.5-.9 0-.7-20.5.2-21.4.4-.4 2.9-.6 5.6-.3 4 .3 5.5 1.1 7.8 3.6zM31 37.5C32.3 46 33.7 53 34.1 53c.9 0 4.1-15.2 6-28.5.3-1.9 1.7 11.1 1.8 16.7.1 3.2.4 5.8.9 5.8.4 0 1.8-1.6 3.1-3.5 2.2-3.3 2.7-3.5 7.8-3.5 4.9 0 5.3.2 4.4 1.8-1.5 2.8-8.8 8.9-16.3 13.7l-6.6 4.2-8.9-5.7C18.1 48.7 12 43.1 12 40.9c0-.5 3.1-.9 6.9-.9h6.9l.8-9c.3-5 1-9 1.4-9 .4 0 1.7 7 3 15.5zm5.4-10.4c1.2-1 1.6-1 1.6-.1 0 2-3.2 19.1-3.6 18.8-.4-.5-3.4-18.1-3.4-20.3 0-1.8.2-1.8 1.9.5 1.6 2 2.1 2.2 3.5 1.1z"/></svg>