<svg version="1.0" xmlns="http://www.w3.org/2000/svg" width="93.333" height="93.333" viewBox="0 0 70 70"><path d="M9.2 16C5.3 19.8 2 23.8 2 24.8c0 1 1.9 3.6 4.3 5.8 7.5 7.2 28.1 24 31.6 25.8 5.3 2.8 13.2 3.1 22.2 1.1l7.9-1.8v-3.4c0-4.5-3.4-7.8-9-8.7-6.7-1.1-9.7-3.4-15.7-12.4-6.6-9.9-8.1-10.9-11.6-8.1l-2.6 2-3.1-2.8c-1.7-1.5-3.8-5-4.8-7.8-1-2.7-2.5-5.1-3.3-5.3-.8-.1-4.7 2.9-8.7 6.8zm9.8-2.9c0 3.2 1.7 5.9 7.5 11.9 3 3 7.3 7.6 9.7 10.1 3.5 3.8 5.7 5 12.3 7.2 4.4 1.4 9.7 2.9 11.8 3.2 2 .4 3.7 1.2 3.7 1.7 0 .7-3.1.9-8.9.6-10.3-.6-15.3-2.6-22.5-9-7.7-6.7-18.4-23.2-17.2-26.4.8-2.2 3.6-1.7 3.6.7zm-2.5 7.1C23 32.6 32.3 42.4 41.7 46.7c4.9 2.3 7.2 2.7 15.1 2.7 11.1 0 10.8 1.4-.5 2.3-11.3.8-15.4-.8-28.7-11.5l-10.9-8.7L15 25c-.9-3.6-2-7.3-2.4-8.3-.5-1-.4-1.7.2-1.7.5 0 2.2 2.4 3.7 5.2zm-3.9 1.4c.8 2 1.4 4.5 1.2 5.6-.3 1.7-.7 1.5-4.2-1.7-3.8-3.4-3.8-3.6-2.1-5.5 2.5-2.8 3.4-2.5 5.1 1.6zM35.3 48c7.5 5.1 14.6 6.6 23.4 5 4.5-.7 6.9-.8 7.6-.1 1.7 1.7-4.1 3.3-14.3 3.8-11.9.6-11.9.6-31.5-15.9C4 27 2.5 25.6 3.5 24.1c.3-.6 6.3 3.7 13.3 9.5 7 5.8 15.3 12.3 18.5 14.4zm1.2-24.1c.6 1.1-3.3 2.6-4.3 1.6-.4-.3 0-1 .8-1.5 1.9-1.2 2.7-1.2 3.5-.1zm1.8 3.8c-1.8.7-1.6 2.3.2 2.3.9 0 1.2.6.9 1.5-.4 1 0 1.5 1.2 1.5 1.6 0 1.7.2.4 1-1.2.8-1.1 1 .6 1 1.2 0 2.9 1.2 3.9 2.6 1.6 2.6 1.6 2.6-.7 1.9-3.3-1-8.6-5.4-11-9.3l-2-3.2 3.9.1c2.1 0 3.2.3 2.6.6z"/></svg>